<svg xmlns="http://www.w3.org/2000/svg" viewBox="0 0 128 128"><circle cx="64" cy="64" r="64" fill="#2cbfae" data-name="Circle Grid"/><polygon fill="#eeefee" points="47.41 69.82 58.19 80.59 26 102 47.41 69.82"/><polygon fill="#eeefee" points="63.04 77.35 60.56 79.01 48.99 67.44 50.64 64.95 63.04 77.35"/><polygon fill="#da364c" points="101.69 47.78 77.52 74.54 53.46 50.48 80.22 26.31 101.69 47.78"/><polygon fill="#ef5261" points="77.92 86.68 41.31 50.07 53.46 50.48 77.52 74.54 77.92 86.68"/><rect width="8.67" height="41.99" x="86.98" y="15.68" fill="#ef5261" rx="2.97" transform="rotate(-45 91.312 36.677)"/><rect width="6.85" height="51.78" x="53.77" y="44.91" fill="#da364c" transform="rotate(-45 57.196 70.799)"/><polygon fill="#dbd8dd" points="60.56 79.01 58.19 80.59 47.41 69.82 48.99 67.44 60.56 79.01"/></svg>